<svg xmlns="http://www.w3.org/2000/svg" viewBox="0 0 100 100" width="100" height="100" fill="none" stroke="#c2a36b" stroke-width="1.4" stroke-linejoin="round" stroke-linecap="round" role="img" aria-label="HYMEA">
  <title>HYMEA</title>
  <g>
    <path d="M50 50 C40 30 44 13 50 6 C56 13 60 30 50 50 Z" />
    <path d="M50 50 C40 30 44 13 50 6 C56 13 60 30 50 50 Z" transform="rotate(45 50 50)" />
    <path d="M50 50 C40 30 44 13 50 6 C56 13 60 30 50 50 Z" transform="rotate(90 50 50)" />
    <path d="M50 50 C40 30 44 13 50 6 C56 13 60 30 50 50 Z" transform="rotate(135 50 50)" />
    <path d="M50 50 C40 30 44 13 50 6 C56 13 60 30 50 50 Z" transform="rotate(180 50 50)" />
    <path d="M50 50 C40 30 44 13 50 6 C56 13 60 30 50 50 Z" transform="rotate(225 50 50)" />
    <path d="M50 50 C40 30 44 13 50 6 C56 13 60 30 50 50 Z" transform="rotate(270 50 50)" />
    <path d="M50 50 C40 30 44 13 50 6 C56 13 60 30 50 50 Z" transform="rotate(315 50 50)" />
  </g>
  <g>
    <path d="M50 50 C43 40 43 29 50 23 C57 29 57 40 50 50 Z" />
    <path d="M50 50 C43 40 43 29 50 23 C57 29 57 40 50 50 Z" transform="rotate(45 50 50)" />
    <path d="M50 50 C43 40 43 29 50 23 C57 29 57 40 50 50 Z" transform="rotate(90 50 50)" />
    <path d="M50 50 C43 40 43 29 50 23 C57 29 57 40 50 50 Z" transform="rotate(135 50 50)" />
    <path d="M50 50 C43 40 43 29 50 23 C57 29 57 40 50 50 Z" transform="rotate(180 50 50)" />
    <path d="M50 50 C43 40 43 29 50 23 C57 29 57 40 50 50 Z" transform="rotate(225 50 50)" />
    <path d="M50 50 C43 40 43 29 50 23 C57 29 57 40 50 50 Z" transform="rotate(270 50 50)" />
    <path d="M50 50 C43 40 43 29 50 23 C57 29 57 40 50 50 Z" transform="rotate(315 50 50)" />
  </g>
  <circle cx="50" cy="50" r="3.2" />
</svg>
